<?xml version="1.0" encoding="UTF-8" standalone="no"?>
<svg width="478px" height="512px" viewBox="0 0 478 512" version="1.1" xmlns="http://www.w3.org/2000/svg" xmlns:xlink="http://www.w3.org/1999/xlink">
    <!-- Generator: Sketch 39.1 (31720) - http://www.bohemiancoding.com/sketch -->
    <title>earth-globe</title>
    <desc>Created with Sketch.</desc>
    <defs></defs>
    <g id="SVGs" stroke="none" stroke-width="1" fill="none" fill-rule="evenodd">
        <g id="earth-globe" fill="#4A86CB">
            <g id="Layer_1">
                <g id="Group">
                    <path d="M48.826,170.317 C53.349,171.64 58.085,169.037 59.399,164.506 C84.675,77.696 165.545,17.067 256.067,17.067 C270.557,17.067 284.961,18.577 298.99,21.573 C298.683,33.852 303.982,42.275 307.395,47.685 C308.342,49.187 309.631,51.235 309.784,51.516 C309.784,82.117 303.529,87.1 303.597,87.117 C289.764,87.117 267.066,99.473 258.532,115.405 C253.293,125.176 253.719,135.518 259.718,144.529 C263.831,150.699 267.372,157.559 270.803,164.198 C278.056,178.244 286.103,193.826 298.741,193.826 C301.412,193.826 304.296,193.126 307.419,191.565 C317.369,186.59 324.503,172.442 331.398,158.771 C334.436,152.746 338.899,143.906 341.544,141.098 C350.205,142.276 354.438,150.109 360.164,162.517 C364.379,171.648 368.74,181.077 377.307,185.361 C391.728,192.572 439.148,185.02 465.354,173.892 C469.271,172.228 471.361,167.927 470.252,163.814 C452.341,97.595 403.692,42.513 340.102,16.477 C335.742,14.685 330.749,16.776 328.966,21.136 C327.183,25.496 329.273,30.48 333.634,32.263 C389.963,55.337 433.594,103.081 451.642,160.912 C425.086,170.273 391.004,173.089 384.937,170.094 C381.729,168.49 378.503,161.518 375.661,155.365 C369.713,142.48 361.564,124.833 340.76,123.911 C330.008,123.262 323.949,135.636 316.158,151.09 C311.584,160.152 304.681,173.848 299.177,176.554 C296.011,175.812 289.722,163.635 285.967,156.364 C282.494,149.64 278.56,142.019 273.918,135.065 C271.401,131.293 271.298,127.709 273.577,123.46 C279.439,112.52 297.027,104.183 303.597,104.183 C319.025,104.183 326.85,86.468 326.85,51.515 C326.85,46.549 324.299,42.504 321.841,38.587 C318.223,32.861 314.494,26.931 316.704,16.81 C317.685,12.313 314.921,7.841 310.458,6.715 C292.786,2.261 274.482,0 256.067,0 C158.002,0 70.39,65.69 43.015,159.744 C41.692,164.267 44.303,169.003 48.826,170.317 L48.826,170.317 Z" id="Shape"></path>
                    <path d="M358.433,226.304 C355.967,227.004 352.596,227.977 351.7,228.045 C339.907,228.045 332.432,237.176 326.979,243.84 C324.897,246.383 321.134,250.948 318.736,251.017 C314.879,249.088 310.826,248.116 306.687,248.116 C296.626,248.116 287.914,254.098 285.968,262.358 C284.594,268.161 286.617,276.105 296.387,280.995 C310.245,287.924 324.573,295.084 330.947,301.458 C335.333,305.844 342.919,308.361 351.768,308.361 C365.208,308.361 383.077,301.833 389.212,283.418 C391.635,276.165 397.43,270.618 403.036,265.259 C409.538,259.021 415.691,253.142 415.776,244.702 C415.836,239.718 413.626,234.957 409.222,230.545 C403.223,224.555 395.057,221.508 384.936,221.508 C375.226,221.508 365.515,224.282 358.433,226.304 L358.433,226.304 Z M398.71,244.471 C398.309,246.152 394.059,250.222 391.235,252.927 C384.792,259.088 376.779,266.76 373.025,278.024 C368.81,290.653 354.576,291.293 351.768,291.293 C346.793,291.293 343.67,289.979 343.021,289.399 C334.675,281.053 319.785,273.604 304.015,265.728 C303.981,265.711 303.955,265.702 303.921,265.685 C305.525,265.028 308.495,264.985 311.106,266.282 C313.862,267.664 316.695,268.364 319.511,268.364 C328.957,268.364 334.922,261.077 340.179,254.651 C344.028,249.966 347.996,245.111 351.699,245.111 C354.728,245.111 358.253,244.104 363.117,242.713 C369.577,240.87 377.615,238.574 384.937,238.574 C390.441,238.574 394.435,239.897 397.148,242.61 C398.334,243.806 398.659,244.471 398.71,244.471 L398.71,244.471 Z" id="Shape"></path>
                    <path d="M475.817,191.164 C475.168,186.488 470.799,183.237 466.2,183.877 C461.532,184.526 458.264,188.835 458.913,193.503 C460.21,202.881 460.867,212.43 460.867,221.868 C460.867,333.979 370.328,425.328 258.525,426.651 C228.18,407.272 199.739,383.532 212.411,353.973 C235.161,300.87 213.99,281.081 204.944,272.616 L203.246,271.003 C200.66,268.426 197.742,266.668 195.173,265.124 C188.927,261.378 187.246,260.371 190.599,250.31 C192.818,243.628 195.77,240.514 199.175,236.904 C207.068,228.558 213.101,220.256 213.101,196.123 C213.101,182.077 205.976,170.873 193.551,165.386 C179.462,159.157 160.646,161.358 150.697,170.387 C144.485,176.036 142.394,183.725 144.971,191.464 C151.055,209.683 137.154,236.017 111.179,255.498 C104.301,260.652 102.253,258.288 101.024,256.88 C93.404,248.099 93.993,223.122 100.247,216.876 C104.437,212.686 105.683,207.336 103.575,202.566 C96.663,186.89 52.571,188.102 43.825,188.512 C39.669,188.708 36.256,191.866 35.744,195.996 C34.66,204.819 34.2,212.559 34.2,221.869 C34.2,324.184 103.482,412.751 202.674,437.259 C207.231,438.394 211.873,435.595 212.999,431.021 C214.134,426.447 211.335,421.822 206.761,420.696 C115.207,398.071 51.267,316.305 51.267,221.867 C51.267,215.945 51.472,210.714 51.924,205.381 C66.362,205.364 78.625,207.036 84.88,208.948 C75.092,224.231 76.167,254.277 88.131,268.067 C96.707,277.949 109.149,278.358 121.42,269.151 C154.205,244.566 169.804,211.943 161.16,186.07 C160.887,185.225 160.614,184.432 162.184,183.007 C166.673,178.928 178.099,177.204 186.649,180.993 C192.964,183.783 196.036,188.733 196.036,196.123 C196.036,215.383 192.153,219.496 186.777,225.179 C182.792,229.403 177.826,234.651 174.404,244.917 C166.733,267.966 179.038,275.355 186.393,279.767 C188.296,280.902 190.088,281.977 191.18,283.069 C191.803,283.692 192.511,284.358 193.288,285.083 C200.797,292.097 214.758,305.162 196.727,347.24 C176.281,394.95 229,428.213 251.511,442.421 C252.876,443.274 254.455,443.735 256.068,443.735 C378.402,443.735 477.935,344.202 477.935,221.868 C477.933,211.644 477.225,201.318 475.817,191.164 L475.817,191.164 Z" id="Shape"></path>
                    <path d="M398.667,413.602 C357.229,444.476 307.915,460.8 256.066,460.8 C124.32,460.8 17.133,353.621 17.133,221.867 C17.133,217.157 13.31,213.334 8.6,213.334 C3.89,213.334 0.067,217.157 0.067,221.867 C0.067,360.167 110.318,473.122 247.534,477.654 L247.534,503.467 C247.534,508.177 251.357,512 256.067,512 C260.777,512 264.6,508.177 264.6,503.467 L264.6,477.526 C317.003,475.828 366.744,458.676 408.865,427.29 C412.645,424.474 413.422,419.132 410.606,415.343 C407.789,411.571 402.456,410.786 398.667,413.602 L398.667,413.602 Z" id="Shape"></path>
                    <path d="M262.595,345.745 C251.945,345.745 239.453,357.999 234.896,368.998 C231.338,377.591 232.396,385.604 237.806,391.014 C242.9,396.108 250.461,399.035 258.551,399.035 C266.641,399.035 274.201,396.108 279.304,391.014 C284.97,385.348 286.353,377.019 283.195,367.573 C281.07,361.19 276.855,354.44 271.94,349.516 C269.498,347.085 266.179,345.745 262.595,345.745 L262.595,345.745 Z M267.237,378.94 C263.448,382.729 253.601,382.626 249.914,379.034 C249.795,378.667 249.803,376.534 252.064,372.796 C255.008,367.941 259.164,364.51 261.417,363.29 C263.84,366.166 265.94,369.767 267.006,372.967 C267.954,375.791 268.039,378.146 267.237,378.94 L267.237,378.94 Z" id="Shape"></path>
                </g>
            </g>
        </g>
    </g>
</svg>