<?xml version="1.0" encoding="UTF-8" standalone="no"?>
<svg width="117px" height="101px" viewBox="0 0 117 101" version="1.1" xmlns="http://www.w3.org/2000/svg" xmlns:xlink="http://www.w3.org/1999/xlink">
    <!-- Generator: Sketch 39.1 (31720) - http://www.bohemiancoding.com/sketch -->
    <title>envelope</title>
    <desc>Created with Sketch.</desc>
    <defs></defs>
    <g id="SVGs" stroke="none" stroke-width="1" fill="none" fill-rule="evenodd">
        <g id="envelope" fill="#4A86CB">
            <path d="M0.5,96.9 C0.5,97 0.5,97.1 0.6,97.3 C0.6,97.4 0.7,97.6 0.7,97.7 C0.7,97.8 0.8,97.9 0.8,98.1 C0.9,98.2 0.9,98.3 1,98.5 C1.1,98.6 1.1,98.7 1.2,98.8 C1.3,98.9 1.4,99 1.4,99.1 C1.5,99.2 1.6,99.3 1.7,99.4 L1.8,99.5 C1.8,99.5 1.9,99.5 1.9,99.6 C2.2,99.9 2.6,100.1 3,100.2 C3.1,100.2 3.1,100.2 3.2,100.3 C3.6,100.4 4,100.5 4.4,100.5 L4.4,100.5 L112.3,100.5 L112.3,100.5 C112.7,100.5 113.1,100.4 113.5,100.3 C113.6,100.3 113.6,100.3 113.7,100.2 C114.1,100 114.5,99.8 114.8,99.6 C114.8,99.6 114.9,99.6 114.9,99.5 L115,99.4 L115.3,99.1 C115.4,99 115.5,98.9 115.5,98.8 C115.6,98.7 115.6,98.6 115.7,98.5 C115.8,98.4 115.8,98.3 115.9,98.1 C116,98 116,97.9 116,97.7 C116,97.6 116.1,97.4 116.1,97.3 C116.1,97.2 116.2,97.1 116.2,96.9 L116.2,96.5 L116.2,96.3 L116.2,4.7 C116.2,2.4 114.4,0.6 112.1,0.6 L4.5,0.6 C2.2,0.6 0.4,2.4 0.4,4.7 L0.4,96.3 L0.4,96.5 C0.5,96.6 0.5,96.7 0.5,96.9 L0.5,96.9 Z M13.3,92.2 L43.6,56 L56.2,64.8 C56.9,65.3 57.7,65.5 58.5,65.5 C59.3,65.5 60.1,65.3 60.8,64.8 L73.4,56 L103.7,92.2 L13.3,92.2 L13.3,92.2 Z M108.4,85 L80.1,51.3 L108.3,31.6 L108.3,85 L108.4,85 Z M8.7,8.8 L108.4,8.8 L108.4,21.7 L58.6,56.4 L8.7,21.7 L8.7,8.8 L8.7,8.8 Z M8.7,31.6 L36.9,51.3 L8.7,85 L8.7,31.6 L8.7,31.6 Z" id="Shape"></path>
        </g>
    </g>
</svg>