<?xml version="1.0" encoding="UTF-8" standalone="no"?>
<svg width="478px" height="512px" viewBox="0 0 478 512" version="1.1" xmlns="http://www.w3.org/2000/svg" xmlns:xlink="http://www.w3.org/1999/xlink">
    <!-- Generator: Sketch 39.1 (31720) - http://www.bohemiancoding.com/sketch -->
    <title>exam</title>
    <desc>Created with Sketch.</desc>
    <defs></defs>
    <g id="SVGs" stroke="none" stroke-width="1" fill="none" fill-rule="evenodd">
        <g id="exam" fill="#4A86CB">
            <g id="Layer_1">
                <g id="Group">
                    <path d="M358.451,315.733 C358.451,311.023 354.628,307.2 349.918,307.2 L298.718,307.2 C294.008,307.2 290.185,311.023 290.185,315.733 C290.185,320.443 294.008,324.266 298.718,324.266 L349.918,324.266 C354.628,324.267 358.451,320.444 358.451,315.733 L358.451,315.733 Z" id="Shape"></path>
                    <path d="M324.317,93.867 L324.317,51.2 C324.317,46.49 320.494,42.667 315.784,42.667 C311.074,42.667 307.251,46.49 307.251,51.2 L307.251,93.867 C307.251,117.393 326.391,136.534 349.918,136.534 L426.718,136.534 L426.718,298.667 C426.718,303.377 430.541,307.2 435.251,307.2 C439.961,307.2 443.784,303.377 443.784,298.667 L443.784,128 C443.784,123.29 439.961,119.467 435.251,119.467 L349.918,119.467 C335.803,119.467 324.317,107.981 324.317,93.867 L324.317,93.867 Z" id="Shape"></path>
                    <path d="M349.917,204.8 L281.65,204.8 C276.94,204.8 273.117,208.623 273.117,213.333 C273.117,218.043 276.94,221.866 281.65,221.866 L349.917,221.866 C354.627,221.866 358.45,218.043 358.45,213.333 C358.451,208.623 354.628,204.8 349.917,204.8 L349.917,204.8 Z" id="Shape"></path>
                    <path d="M256.051,213.333 C256.051,208.623 252.228,204.8 247.518,204.8 L196.318,204.8 C191.608,204.8 187.785,208.623 187.785,213.333 C187.785,218.043 191.608,221.866 196.318,221.866 L247.518,221.866 C252.228,221.867 256.051,218.044 256.051,213.333 L256.051,213.333 Z" id="Shape"></path>
                    <path d="M187.784,264.533 C187.784,269.243 191.607,273.066 196.317,273.066 L213.384,273.066 C218.094,273.066 221.917,269.243 221.917,264.533 C221.917,259.823 218.094,256 213.384,256 L196.317,256 C191.607,256 187.784,259.823 187.784,264.533 Z" id="Shape"></path>
                    <path d="M196.317,170.667 L281.65,170.667 C286.36,170.667 290.183,166.844 290.183,162.134 C290.183,157.424 286.36,153.601 281.65,153.601 L196.317,153.601 C191.607,153.601 187.784,157.424 187.784,162.134 C187.784,166.844 191.607,170.667 196.317,170.667 L196.317,170.667 Z" id="Shape"></path>
                    <path d="M247.517,273.067 L332.85,273.067 C337.56,273.067 341.383,269.244 341.383,264.534 C341.383,259.824 337.56,256.001 332.85,256.001 L247.517,256.001 C242.807,256.001 238.984,259.824 238.984,264.534 C238.984,269.244 242.807,273.067 247.517,273.067 L247.517,273.067 Z" id="Shape"></path>
                    <path d="M298.717,358.4 C294.007,358.4 290.184,362.223 290.184,366.933 C290.184,371.643 294.007,375.466 298.717,375.466 L315.784,375.466 C320.494,375.466 324.317,371.643 324.317,366.933 C324.317,362.223 320.494,358.4 315.784,358.4 L298.717,358.4 L298.717,358.4 Z" id="Shape"></path>
                    <path d="M264.584,307.2 L196.317,307.2 C191.607,307.2 187.784,311.023 187.784,315.733 C187.784,320.443 191.607,324.266 196.317,324.266 L264.584,324.266 C269.294,324.266 273.117,320.443 273.117,315.733 C273.117,311.023 269.294,307.2 264.584,307.2 L264.584,307.2 Z" id="Shape"></path>
                    <path d="M264.584,358.4 L196.317,358.4 C191.607,358.4 187.784,362.223 187.784,366.933 C187.784,371.643 191.607,375.466 196.317,375.466 L264.584,375.466 C269.294,375.466 273.117,371.643 273.117,366.933 C273.117,362.223 269.294,358.4 264.584,358.4 L264.584,358.4 Z" id="Shape"></path>
                    <path d="M467.754,351.497 L450.687,334.43 C437.571,321.314 417.586,321.34 404.488,334.43 L292.684,446.234 C291.088,447.83 290.184,450.006 290.184,452.267 L290.184,503.467 C290.184,508.177 294.007,512 298.717,512 L349.917,512 C352.178,512 354.354,511.096 355.95,509.5 L467.754,397.696 C481.348,384.102 481.348,365.099 467.754,351.497 L467.754,351.497 Z M393.454,369.596 L406.988,383.13 L332.85,457.268 L319.316,443.734 L393.454,369.596 L393.454,369.596 Z M307.251,494.933 L307.251,455.799 L346.385,494.933 L307.251,494.933 L307.251,494.933 Z M358.451,482.867 L344.917,469.333 L419.055,395.195 L432.589,408.729 L358.451,482.867 L358.451,482.867 Z M455.688,385.63 L444.654,396.664 L405.52,357.53 L416.554,346.496 C423.295,339.763 431.846,339.729 438.621,346.496 L455.688,363.563 C462.591,370.475 462.591,378.726 455.688,385.63 L455.688,385.63 Z" id="Shape"></path>
                    <path d="M264.584,494.933 L42.717,494.933 C28.603,494.933 17.117,483.447 17.117,469.333 L17.117,42.667 C17.117,28.553 28.603,17.067 42.717,17.067 L312.251,17.067 L395.084,99.9 C398.42,103.237 403.814,103.237 407.15,99.9 C410.487,96.564 410.487,91.17 407.15,87.834 L321.817,2.5 C320.221,0.896 318.045,0 315.784,0 L42.717,0 C19.191,0 0.051,19.14 0.051,42.667 L0.051,469.334 C0.051,492.86 19.191,512.001 42.718,512.001 L264.585,512.001 C269.295,512.001 273.118,508.178 273.118,503.468 C273.118,498.758 269.294,494.933 264.584,494.933 L264.584,494.933 Z" id="Shape"></path>
                    <path d="M264.584,409.6 L196.317,409.6 C191.607,409.6 187.784,413.423 187.784,418.133 C187.784,422.843 191.607,426.666 196.317,426.666 L264.584,426.666 C269.294,426.666 273.117,422.843 273.117,418.133 C273.117,413.423 269.294,409.6 264.584,409.6 L264.584,409.6 Z" id="Shape"></path>
                    <path d="M153.651,162.133 C153.651,157.423 149.828,153.6 145.118,153.6 L93.918,153.6 C89.208,153.6 85.385,157.423 85.385,162.133 L85.385,213.333 C85.385,218.043 89.208,221.866 93.918,221.866 L145.118,221.866 C149.828,221.866 153.651,218.043 153.651,213.333 L153.651,162.133 L153.651,162.133 Z M136.584,204.8 L102.451,204.8 L102.451,170.667 L136.584,170.667 L136.584,204.8 L136.584,204.8 Z" id="Shape"></path>
                    <path d="M93.917,426.667 L145.117,426.667 C149.827,426.667 153.65,422.844 153.65,418.134 L153.65,366.934 C153.65,362.224 149.827,358.401 145.117,358.401 L93.917,358.401 C89.207,358.401 85.384,362.224 85.384,366.934 L85.384,418.134 C85.384,422.844 89.207,426.667 93.917,426.667 L93.917,426.667 Z M102.451,375.467 L136.584,375.467 L136.584,409.6 L102.451,409.6 L102.451,375.467 L102.451,375.467 Z" id="Shape"></path>
                    <path d="M104.951,321.766 C106.555,323.37 108.731,324.266 110.984,324.266 C111.266,324.266 111.539,324.258 111.829,324.223 C114.372,323.976 116.667,322.593 118.084,320.468 L152.217,269.268 C154.828,265.343 153.77,260.043 149.853,257.432 C145.919,254.812 140.637,255.879 138.017,259.796 L109.661,302.335 L99.95,292.633 C96.614,289.296 91.22,289.296 87.884,292.633 C84.548,295.97 84.547,301.363 87.884,304.699 L104.951,321.766 L104.951,321.766 Z" id="Shape"></path>
                </g>
            </g>
        </g>
    </g>
</svg>