<?xml version="1.0" encoding="UTF-8" standalone="no"?>
<svg width="117px" height="117px" viewBox="0 0 117 117" version="1.1" xmlns="http://www.w3.org/2000/svg" xmlns:xlink="http://www.w3.org/1999/xlink">
    <!-- Generator: Sketch 39.1 (31720) - http://www.bohemiancoding.com/sketch -->
    <title>phone-call</title>
    <desc>Created with Sketch.</desc>
    <defs></defs>
    <g id="SVGs" stroke="none" stroke-width="1" fill="none" fill-rule="evenodd">
        <g id="phone-call" fill="#4A86CB">
            <g id="Layer_1">
                <path d="M112.556971,91.5342188 L89.6315977,68.6090742 C86.8948945,65.8725996 82.4429531,65.8725996 79.7060215,68.6090742 L73.7445059,74.5705898 C71.8766191,76.4384766 71.2861348,79.1054824 71.9682539,81.4811309 L69.7189746,83.7304102 C69.7182891,83.7310957 69.717832,83.7315527 69.7171465,83.7322383 C68.1198223,85.3313906 58.1718516,82.8773613 46.1469023,70.8524121 C34.1237812,58.8295195 31.6690664,48.8831484 33.2663906,47.2828535 C33.2663906,47.2823965 33.2668477,47.2823965 33.2668477,47.2823965 L35.5181836,45.0312891 C36.1536855,45.213873 36.8095254,45.3071074 37.4658223,45.3071074 C39.2630977,45.3071074 41.0601445,44.6231602 42.4287246,43.2550371 L48.3902402,37.2935215 C51.1267148,34.5570469 51.1267148,30.104877 48.3902402,27.3681738 L25.4648672,4.44257227 C24.1394766,3.11718164 22.3769355,2.38730273 20.5024219,2.38730273 C18.6274512,2.38730273 16.8655957,3.11763867 15.5399766,4.44257227 L9.57800391,10.4045449 C7.71011719,12.2724316 7.11963281,14.939666 7.80175195,17.3150859 C7.80175195,17.3150859 5.89501758,19.2401016 5.80018359,19.3616719 C-0.541810547,26.4111504 -1.73169141,37.5099258 2.47276758,50.7795996 C6.58993359,63.7723125 15.4654805,77.5360371 27.4648359,89.534707 C39.4637344,101.533605 53.227459,110.409152 66.2201719,114.526775 C71.4394687,116.180543 76.3221621,117 80.7560508,117 C88.0258184,117 94.0869668,114.795281 98.4317344,110.450742 L99.6826289,109.199848 C100.308762,109.379918 100.962773,109.477037 101.632324,109.477037 C103.507295,109.477037 105.269607,108.746701 106.59477,107.421768 L112.556742,101.459795 C115.293217,98.7233203 115.293217,94.2709219 112.556971,91.5342188 L112.556971,91.5342188 Z M20.5024219,9.40501758 L43.4280234,32.3308477 L37.469707,38.2955625 L37.4665078,38.2923633 L37.3808145,38.2066699 L26.003707,26.8295625 L14.5406777,15.3669902 L20.5024219,9.40501758 L20.5024219,9.40501758 Z M93.4695176,105.488068 L93.468375,105.489211 C88.4195508,110.53735 79.4955586,111.371203 68.3405684,107.836066 C56.4001699,104.052305 43.6460273,95.7900937 32.4279668,84.5718047 C21.2094492,73.3535156 12.9472383,60.5998301 9.16370508,48.6592031 C5.62856836,37.5037559 6.46242187,28.5795352 11.5117031,23.5300254 L11.5121602,23.5295684 L12.1451484,22.8965801 L29.9366895,40.6878926 L28.3048594,42.3197227 C28.3037168,42.3208652 28.3028027,42.3222363 28.3014316,42.3236074 C21.5407969,49.0926973 29.6640703,64.2946992 41.1846855,75.8153145 C49.8074941,84.438123 60.4926562,91.1578535 68.1611836,91.1578535 C70.7397539,91.1578535 72.9773789,90.3980391 74.6802773,88.6949121 C74.6809629,88.6942266 74.6814199,88.6937695 74.6821055,88.693084 L76.3121074,87.063082 L94.1036484,104.854395 L93.4695176,105.488068 L93.4695176,105.488068 Z M101.632781,102.459094 L78.7071797,79.5334922 L84.6686953,73.5719766 L107.594297,96.4971211 C107.594297,96.4971211 101.634838,102.46115 101.632781,102.459094 L101.632781,102.459094 Z" id="Shape"></path>
                <path d="M88.8509883,28.1494687 C82.1762754,21.4747559 73.3023281,17.799082 63.8641758,17.7993105 C61.9261348,17.7993105 60.3550898,19.3703555 60.3550898,21.3083965 C60.3550898,23.2464375 61.9263633,24.8174824 63.8641758,24.8174824 C71.428043,24.8170254 78.5392207,27.7630488 83.888543,33.1119141 C89.2371797,38.4605508 92.1825176,45.5717285 92.1822891,53.1353672 C92.1822891,55.0734082 93.753334,56.6449102 95.691375,56.6449102 C97.6291875,56.6449102 99.2004609,55.0738652 99.2004609,53.1362812 C99.2006895,43.6976719 95.5247871,34.8241816 88.8509883,28.1494687 L88.8509883,28.1494687 Z" id="Shape"></path>
                <path d="M101.436943,15.5635137 C91.3998516,5.52687891 78.0559102,-0.00045703125 63.8628047,0 C61.9247637,0 60.3537188,1.57127344 60.3537188,3.50908594 C60.3537188,5.44712695 61.9249922,7.01817187 63.8628047,7.01817187 C76.1813965,7.01771484 87.7627969,11.8151719 96.474041,20.525959 C105.1846,29.2365176 109.981828,40.817918 109.9816,53.1365098 C109.9816,55.0745508 111.552645,56.6455957 113.490686,56.6455957 C115.428498,56.6455957 116.999771,55.0745508 116.999771,53.1369668 C117.000229,38.9434043 111.472893,25.5999199 101.436943,15.5635137 L101.436943,15.5635137 Z" id="Shape"></path>
                <path d="M76.2641191,40.7351953 C72.9035684,37.3746445 68.6168438,35.5988496 63.8657754,35.5988496 L63.8644043,35.5988496 C61.9263633,35.5993066 60.3553184,37.170123 60.3557754,39.1083926 C60.3562324,41.0464336 61.9275059,42.6174785 63.8653184,42.6170215 L63.8664609,42.6170215 C66.7558125,42.6170215 69.2578301,43.6535684 71.3021309,45.6976406 C73.3174102,47.7131484 74.38275,50.2850918 74.382293,53.1344531 C74.3818359,55.0724941 75.9533379,56.6435391 77.8909219,56.6439961 L77.8913789,56.6439961 C79.8294199,56.6439961 81.4000078,55.0729512 81.4004648,53.1353672 C81.4006934,48.3840703 79.6248984,44.0962031 76.2641191,40.7351953 L76.2641191,40.7351953 Z" id="Shape"></path>
            </g>
        </g>
    </g>
</svg>