<?xml version="1.0" encoding="UTF-8" standalone="no"?>
<svg width="93px" height="117px" viewBox="0 0 93 117" version="1.1" xmlns="http://www.w3.org/2000/svg" xmlns:xlink="http://www.w3.org/1999/xlink">
    <!-- Generator: Sketch 39.1 (31720) - http://www.bohemiancoding.com/sketch -->
    <title>placeholder</title>
    <desc>Created with Sketch.</desc>
    <defs></defs>
    <g id="SVGs" stroke="none" stroke-width="1" fill="none" fill-rule="evenodd">
        <g id="placeholder" fill="#4A86CB">
            <g id="Group">
                <path d="M46.5,0.4 C21,0.4 0.2,21.2 0.2,46.8 C0.2,49.9 0.5,53 1.1,56 C1.1,56.2 1.2,56.4 1.2,56.7 C6.3,79.6 42.2,114 43.7,115.4 C44.5,116.2 45.5,116.5 46.5,116.5 C47.5,116.5 48.5,116.1 49.3,115.4 C50.8,113.9 86.5,79.6 91.6,57.2 C91.6,57 91.7,56.8 91.7,56.6 C92.4,53.4 92.7,50.1 92.7,46.8 C92.8,21.2 72,0.4 46.5,0.4 L46.5,0.4 Z M83.7,55.1 L83.7,55.4 C79.9,72 55,98.2 46.5,106.7 C38,98.2 13,72 9.2,55 C9.2,54.8 9.2,54.7 9.1,54.5 C8.6,51.9 8.3,49.3 8.3,46.7 C8.3,25.7 25.4,8.5 46.4,8.5 C67.4,8.5 84.6,25.6 84.6,46.7 C84.6,49.6 84.3,52.4 83.7,55.1 L83.7,55.1 Z" id="Shape"></path>
                <path d="M46.5,26.5 C37.9,26.5 31,33.5 31,42 C31,50.5 38,57.5 46.5,57.5 C55,57.5 62,50.6 62,42 C62,33.4 55.1,26.5 46.5,26.5 L46.5,26.5 Z M46.5,49.4 C42.4,49.4 39.1,46.1 39.1,42 C39.1,37.9 42.4,34.6 46.5,34.6 C50.6,34.6 53.9,37.9 53.9,42 C53.9,46.1 50.6,49.4 46.5,49.4 L46.5,49.4 Z" id="Shape"></path>
            </g>
        </g>
    </g>
</svg>