<?xml version="1.0" encoding="UTF-8" standalone="no"?>
<svg width="512px" height="512px" viewBox="0 0 512 512" version="1.1" xmlns="http://www.w3.org/2000/svg" xmlns:xlink="http://www.w3.org/1999/xlink">
    <!-- Generator: Sketch 39.1 (31720) - http://www.bohemiancoding.com/sketch -->
    <title>professor</title>
    <desc>Created with Sketch.</desc>
    <defs></defs>
    <g id="SVGs" stroke="none" stroke-width="1" fill="none" fill-rule="evenodd">
        <g id="professor" fill="#4A86CB">
            <g id="Layer_1">
                <g id="Group">
                    <path d="M50.918,445.739 C52.061,445.739 53.213,445.509 54.323,445.022 C81.544,433.169 127.513,427 191.001,426.675 L197.162,439.014 C199.278,443.23 204.407,444.953 208.614,442.828 C212.829,440.72 214.545,435.6 212.428,431.385 L203.903,414.318 C202.452,411.425 199.5,409.599 196.266,409.599 C126.728,409.599 78.062,416.067 47.504,429.371 C43.186,431.257 41.215,436.283 43.092,440.609 C44.493,443.819 47.625,445.739 50.918,445.739 L50.918,445.739 Z" id="Shape"></path>
                    <path d="M494.933,460.8 L477.866,460.8 L477.866,418.133 C477.866,415.872 476.961,413.696 475.366,412.1 L424.098,360.84 C425.702,357.503 426.667,353.809 426.667,349.866 C426.667,335.752 415.181,324.266 401.067,324.266 C386.953,324.266 375.467,335.752 375.467,349.866 C375.467,363.98 386.953,375.466 401.067,375.466 C405.009,375.466 408.696,374.502 412.032,372.906 L460.8,421.665 L460.8,460.8 L17.067,460.8 C7.654,460.8 0,468.454 0,477.867 L0,503.467 C0,508.177 3.823,512 8.533,512 C13.243,512 17.066,508.177 17.066,503.467 L17.066,477.867 L494.933,477.867 L494.933,503.467 C494.933,508.177 498.747,512 503.466,512 C508.185,512 511.999,508.177 511.999,503.467 L511.999,477.867 C512,468.454 504.337,460.8 494.933,460.8 L494.933,460.8 Z M401.067,358.4 C396.357,358.4 392.534,354.569 392.534,349.867 C392.534,345.165 396.357,341.334 401.067,341.334 C405.777,341.334 409.6,345.165 409.6,349.867 C409.6,354.569 405.777,358.4 401.067,358.4 L401.067,358.4 Z" id="Shape"></path>
                    <path d="M121.83,255.249 C128.051,271.445 148.633,323.669 163.567,346.069 L164.915,348.108 C175.872,364.722 194.201,392.532 256,392.532 C317.79,392.532 336.128,364.722 347.085,348.108 L348.433,346.069 C363.366,323.669 383.94,271.445 390.17,255.249 C401.315,252.476 409.6,242.389 409.6,230.4 L409.6,196.267 C409.6,185.14 402.466,175.65 392.533,172.126 L392.533,128 C392.533,94.31 374.792,32.077 309.171,26.069 C309.043,22.041 307.712,18.799 306.227,16.401 C297.839,2.842 274.287,0 256,0 C104.158,0 102.4,143.616 102.4,145.067 C102.4,149.777 106.214,153.592 110.916,153.592 L110.933,153.592 C115.635,153.592 119.449,149.786 119.466,145.076 C119.483,139.854 121.403,17.067 255.999,17.067 C280.131,17.067 289.8,22.289 291.711,25.378 C291.976,25.813 292.701,26.982 291.028,30.319 C289.705,32.964 289.85,36.105 291.403,38.622 C292.965,41.131 295.704,42.667 298.665,42.667 C374.322,42.667 375.456,124.527 375.465,128 L375.465,179.2 C375.465,183.91 379.279,187.733 383.998,187.733 C388.708,187.733 392.531,191.564 392.531,196.266 L392.531,230.4 C392.531,235.102 388.708,238.933 383.998,238.933 C380.44,238.933 377.257,241.143 376.002,244.471 C375.755,245.145 350.556,312.115 334.231,336.597 L332.832,338.713 C322.609,354.227 308.597,375.466 255.998,375.466 C203.39,375.466 189.387,354.227 179.164,338.713 L177.765,336.597 C161.441,312.115 136.242,245.145 135.986,244.471 C134.74,241.143 131.557,238.933 127.999,238.933 C123.297,238.933 119.466,235.102 119.466,230.4 L119.466,196.267 C119.466,193.954 120.388,191.855 121.889,190.319 C124.987,197.274 131.31,203.529 141.934,204.587 L171.135,226.484 C173.414,243.106 187.554,256 204.8,256 L221.867,256 C240.691,256 256,240.691 256,221.867 C256,240.691 271.309,256 290.133,256 L307.2,256 C324.437,256 338.594,243.106 340.864,226.475 L372.053,203.094 C375.825,200.269 376.593,194.919 373.76,191.147 C370.935,187.375 365.585,186.599 361.813,189.44 L340.062,205.756 C336.811,195.354 327.202,187.734 315.733,187.734 L281.6,187.734 C267.486,187.734 256,199.22 256,213.334 C256,199.22 244.514,187.734 230.4,187.734 L196.267,187.734 C184.807,187.734 175.198,195.354 171.939,205.756 L155.657,193.545 C162.373,177.315 168.457,153.31 170.181,136.457 C197.078,135.979 274.894,132.694 309.513,111.087 C317.364,141.397 342.563,166.904 343.834,168.167 C347.17,171.503 352.564,171.503 355.9,168.167 C359.236,164.83 359.236,159.437 355.9,156.101 C355.584,155.785 324.267,124.118 324.267,93.867 C324.267,90.036 321.707,86.665 318.012,85.641 C314.334,84.617 310.383,86.187 308.421,89.472 C295.996,110.165 215.399,119.467 162.134,119.467 C157.424,119.467 153.601,123.29 153.601,128 C153.601,141.85 147.056,169.515 140.093,186.539 C137.371,184.901 136.603,181.846 136.535,179.2 C136.535,174.49 132.712,170.667 128.002,170.667 C113.888,170.667 102.402,182.153 102.402,196.267 L102.402,230.4 C102.4,242.389 110.686,252.476 121.83,255.249 L121.83,255.249 Z M273.067,213.333 C273.067,208.631 276.89,204.8 281.6,204.8 L315.733,204.8 C320.443,204.8 324.266,208.631 324.266,213.333 L324.266,221.866 C324.266,231.278 316.612,238.933 307.199,238.933 L290.132,238.933 C280.72,238.933 273.065,231.279 273.065,221.866 L273.065,213.333 L273.067,213.333 Z M187.733,213.333 C187.733,208.631 191.564,204.8 196.266,204.8 L230.4,204.8 C235.102,204.8 238.933,208.631 238.933,213.333 L238.933,221.866 C238.933,231.278 231.279,238.933 221.866,238.933 L204.8,238.933 C195.388,238.933 187.733,231.279 187.733,221.866 L187.733,213.333 L187.733,213.333 Z" id="Shape"></path>
                    <path d="M298.658,307.226 C298.667,302.524 294.861,298.693 290.159,298.667 C289.997,298.667 274.739,298.496 259.814,291.03 C257.416,289.835 254.583,289.835 252.185,291.03 C237.26,298.497 221.994,298.667 221.866,298.667 C217.156,298.667 213.333,302.49 213.333,307.2 C213.333,311.91 217.156,315.733 221.866,315.733 C222.591,315.733 238.711,315.639 255.999,308.079 C273.279,315.639 289.407,315.733 290.132,315.733 C294.835,315.733 298.641,311.927 298.658,307.226 L298.658,307.226 Z" id="Shape"></path>
                    <path d="M315.708,409.95 C312.517,409.967 309.59,411.759 308.13,414.609 L299.597,431.317 C297.455,435.515 299.128,440.661 303.318,442.803 C304.555,443.434 305.887,443.733 307.192,443.733 C310.298,443.733 313.293,442.035 314.804,439.082 L320.957,427.016 C367.6,427.144 405.164,430.634 432.692,437.393 C437.283,438.528 441.891,435.721 443.009,431.147 C444.135,426.565 441.345,421.948 436.763,420.822 C406.878,413.474 366.345,409.651 315.708,409.95 L315.708,409.95 Z" id="Shape"></path>
                    <path d="M247.467,418.133 L247.467,435.2 C247.467,439.91 251.29,443.733 256,443.733 C260.71,443.733 264.533,439.91 264.533,435.2 L264.533,418.133 C264.533,413.423 260.71,409.6 256,409.6 C251.29,409.6 247.467,413.423 247.467,418.133 L247.467,418.133 Z" id="Shape"></path>
                    <path d="M247.467,324.267 C242.757,324.267 238.934,328.09 238.934,332.8 C238.934,337.51 242.757,341.333 247.467,341.333 L264.534,341.333 C269.253,341.333 273.067,337.51 273.067,332.8 C273.067,328.09 269.253,324.267 264.534,324.267 L247.467,324.267 L247.467,324.267 Z" id="Shape"></path>
                </g>
            </g>
        </g>
    </g>
</svg>