<?xml version="1.0" encoding="UTF-8" standalone="no"?>
<svg width="512px" height="512px" viewBox="0 0 512 512" version="1.1" xmlns="http://www.w3.org/2000/svg" xmlns:xlink="http://www.w3.org/1999/xlink">
    <!-- Generator: Sketch 39.1 (31720) - http://www.bohemiancoding.com/sketch -->
    <title>milestone_1</title>
    <desc>Created with Sketch.</desc>
    <defs></defs>
    <g id="SVGs" stroke="none" stroke-width="1" fill="none" fill-rule="evenodd">
        <g id="milestone_1" fill="#4A86CB">
            <g id="Layer_1">
                <g id="Group">
                    <path d="M58.631,42.594 L254.898,68.194 C255.265,68.237 255.632,68.262 255.999,68.262 C256.366,68.262 256.733,68.236 257.1,68.194 L443.733,43.848 L443.733,73.476 C438.383,79.492 426.666,94.502 426.666,110.929 C426.666,129.711 441.975,136.529 452.266,136.529 C462.557,136.529 477.866,129.711 477.866,110.929 C477.866,94.502 466.15,79.492 460.799,73.476 L460.799,34.129 C460.799,33.003 460.56,31.936 460.159,30.946 C460.014,30.596 459.766,30.323 459.579,29.999 C459.246,29.402 458.913,28.813 458.453,28.318 C458.154,28.002 457.796,27.789 457.455,27.533 C456.969,27.14 456.491,26.765 455.928,26.492 C455.51,26.287 455.066,26.202 454.614,26.074 C454.196,25.946 453.82,25.724 453.368,25.664 L257.101,0.064 C256.367,-0.021 255.633,-0.021 254.899,0.064 L58.632,25.664 C54.382,26.219 51.2,29.845 51.2,34.129 C51.198,38.413 54.381,42.04 58.631,42.594 L58.631,42.594 Z M460.798,110.929 C460.798,117.739 456.181,119.334 452.265,119.462 C448.348,119.334 443.732,117.738 443.732,110.929 C443.732,103.846 448.084,95.944 452.265,90.116 C456.446,95.945 460.798,103.847 460.798,110.929 L460.798,110.929 Z M255.998,17.131 L386.293,34.129 L255.998,51.128 L125.703,34.129 L255.998,17.131 L255.998,17.131 Z" id="Shape"></path>
                    <path d="M307.198,255.996 C324.435,255.996 338.592,243.102 340.862,226.471 L372.051,203.09 C375.823,200.265 376.591,194.915 373.758,191.143 C370.933,187.371 365.583,186.595 361.811,189.436 L340.06,205.752 C336.809,195.35 327.2,187.73 315.731,187.73 L281.598,187.73 C267.484,187.73 255.998,199.216 255.998,213.33 C255.998,199.216 244.512,187.73 230.398,187.73 L196.265,187.73 C184.796,187.73 175.188,195.35 171.936,205.752 L150.185,189.436 C146.422,186.611 141.063,187.379 138.238,191.143 C135.405,194.915 136.173,200.265 139.945,203.09 L171.134,226.471 C173.404,243.102 187.552,255.996 204.798,255.996 L221.865,255.996 C240.69,255.996 255.998,240.687 255.998,221.863 C255.998,240.688 271.307,255.996 290.131,255.996 L307.198,255.996 L307.198,255.996 Z M238.931,221.863 C238.931,231.275 231.268,238.93 221.864,238.93 L204.797,238.93 C195.385,238.93 187.73,231.276 187.73,221.863 L187.73,213.33 C187.73,208.628 191.553,204.797 196.263,204.797 L230.396,204.797 C235.106,204.797 238.929,208.628 238.929,213.33 L238.929,221.863 L238.931,221.863 Z M273.065,221.863 L273.065,213.33 C273.065,208.628 276.888,204.797 281.598,204.797 L315.731,204.797 C320.441,204.797 324.264,208.628 324.264,213.33 L324.264,221.863 C324.264,231.275 316.61,238.93 307.197,238.93 L290.13,238.93 C280.719,238.929 273.065,231.275 273.065,221.863 L273.065,221.863 Z" id="Shape"></path>
                    <path d="M392.182,433.105 C392.02,432.499 391.764,431.953 391.482,431.39 C391.32,431.091 391.286,430.75 391.098,430.46 C391.004,430.332 390.868,430.264 390.774,430.136 C390.416,429.667 389.972,429.283 389.511,428.89 C389.101,428.515 388.7,428.148 388.214,427.874 C388.069,427.78 387.984,427.644 387.821,427.558 L353.688,410.5 C350.94,409.126 347.68,409.331 345.138,411.029 L293.929,445.162 C291.557,446.741 290.132,449.412 290.132,452.262 L290.132,482.521 C285.055,486.583 272.588,494.928 255.999,494.928 C239.572,494.928 226.986,486.54 221.866,482.495 L221.866,452.261 C221.866,449.411 220.441,446.74 218.069,445.161 L166.869,411.028 C164.326,409.33 161.066,409.125 158.319,410.499 L124.186,427.557 C124.032,427.634 123.947,427.77 123.811,427.856 C123.299,428.146 122.872,428.53 122.437,428.931 C122.01,429.307 121.584,429.665 121.251,430.109 C121.149,430.246 120.995,430.322 120.901,430.459 C120.696,430.766 120.662,431.116 120.5,431.44 C120.235,431.978 119.979,432.498 119.826,433.078 C119.689,433.616 119.655,434.128 119.621,434.674 C119.587,435.212 119.561,435.732 119.63,436.278 C119.698,436.875 119.895,437.421 120.091,437.985 C120.21,438.326 120.202,438.685 120.364,439.009 C120.441,439.163 120.586,439.256 120.671,439.402 C120.953,439.897 121.337,440.315 121.729,440.75 C122.113,441.177 122.471,441.603 122.915,441.945 C123.052,442.047 123.128,442.201 123.265,442.295 L174.465,476.428 C175.924,477.401 177.571,477.862 179.192,477.862 C181.948,477.862 184.662,476.531 186.3,474.065 C188.92,470.14 187.862,464.84 183.936,462.229 L144.964,436.254 L161.519,427.977 L204.8,456.828 L204.8,486.396 C204.8,488.657 205.696,490.833 207.3,492.429 C208.102,493.231 227.2,511.996 256,511.996 C284.8,511.996 303.898,493.231 304.7,492.429 C306.296,490.833 307.2,488.657 307.2,486.396 L307.2,456.828 L350.49,427.977 L367.036,436.246 L328.064,462.23 C324.139,464.841 323.081,470.14 325.7,474.066 C327.338,476.532 330.052,477.863 332.808,477.863 C334.429,477.863 336.076,477.402 337.535,476.429 L388.735,442.296 C388.872,442.202 388.94,442.057 389.068,441.963 C389.546,441.605 389.921,441.161 390.322,440.709 C390.68,440.282 391.047,439.898 391.32,439.42 C391.405,439.266 391.559,439.173 391.636,439.01 C391.815,438.66 391.815,438.285 391.935,437.926 C392.114,437.388 392.302,436.876 392.37,436.313 C392.447,435.733 392.421,435.187 392.379,434.615 C392.344,434.104 392.318,433.617 392.182,433.105 L392.182,433.105 Z" id="Shape"></path>
                    <path d="M427.271,404.237 C428.611,407.565 431.811,409.596 435.198,409.596 C436.256,409.596 437.323,409.4 438.364,408.982 C442.742,407.241 444.866,402.275 443.126,397.897 C442.955,397.487 426.665,356.178 426.665,315.73 L426.665,247.463 C426.665,174.759 389.4,155.294 387.813,154.501 C385.176,153.178 382.027,153.306 379.519,154.868 C377.002,156.43 375.466,159.169 375.466,162.13 L375.466,196.263 C375.466,228.536 350.771,294.832 342.229,311.915 C334.575,327.232 294.075,375.463 256,375.463 C217.925,375.463 177.425,327.233 169.762,311.915 C161.229,294.831 136.533,228.536 136.533,196.263 L136.533,162.13 C136.533,159.169 134.997,156.43 132.48,154.868 C129.963,153.306 126.822,153.178 124.186,154.501 C122.599,155.295 85.334,174.759 85.334,247.463 L85.334,315.73 C85.334,356.178 69.044,397.488 68.873,397.897 C67.132,402.275 69.257,407.241 73.635,408.982 C77.996,410.723 82.979,408.607 84.728,404.237 C85.445,402.428 102.4,359.539 102.4,315.729 L102.4,247.462 C102.4,212.859 111.42,192.755 119.467,181.696 L119.467,196.262 C119.467,232.887 146.338,303.227 154.496,319.543 C164.881,340.313 210.33,392.529 256,392.529 C301.67,392.529 347.119,340.313 357.495,319.543 C365.661,303.227 392.533,232.887 392.533,196.262 L392.533,181.713 C400.597,192.781 409.6,212.877 409.6,247.462 L409.6,315.729 C409.598,359.539 426.554,402.428 427.271,404.237 L427.271,404.237 Z" id="Shape"></path>
                    <path d="M275.667,309.602 C275.394,309.849 268.96,315.729 255.998,315.729 C243.224,315.729 236.789,310.02 236.346,309.611 C233.027,306.36 227.676,306.385 224.365,309.696 C221.028,313.033 221.028,318.426 224.365,321.762 C225.491,322.888 235.97,332.796 255.998,332.796 C276.026,332.796 286.505,322.889 287.631,321.762 C290.925,318.468 290.916,313.195 287.682,309.849 C284.431,306.505 279.072,306.411 275.667,309.602 L275.667,309.602 Z" id="Shape"></path>
                    <path d="M511.554,500.766 C510.803,498.496 492.183,444.915 420.196,426.919 C415.622,425.758 410.997,428.557 409.854,433.123 C408.711,437.697 411.492,442.33 416.066,443.474 C478.59,459.107 494.726,504.283 495.375,506.16 C496.561,509.736 499.889,511.997 503.465,511.997 C504.352,511.997 505.266,511.86 506.162,511.562 C510.633,510.067 513.048,505.238 511.554,500.766 L511.554,500.766 Z" id="Shape"></path>
                    <path d="M392.531,127.996 L392.531,68.263 C392.531,63.553 388.717,59.73 383.998,59.73 C379.279,59.73 375.465,63.553 375.465,68.263 L375.465,122.475 C361.351,128.457 316.687,145.063 255.998,145.063 C195.309,145.063 150.645,128.457 136.531,122.475 L136.531,68.263 C136.531,63.553 132.717,59.73 127.998,59.73 C123.279,59.73 119.465,63.553 119.465,68.263 L119.465,127.996 C119.465,131.23 121.291,134.183 124.184,135.633 C126.351,136.708 178.081,162.129 255.998,162.129 C333.915,162.129 385.645,136.708 387.812,135.633 C390.705,134.183 392.531,131.23 392.531,127.996 L392.531,127.996 Z" id="Shape"></path>
                    <path d="M91.8,426.919 C19.813,444.916 1.193,498.497 0.442,500.766 C-1.051,505.237 1.364,510.067 5.835,511.561 C6.731,511.86 7.636,511.996 8.532,511.996 C12.107,511.996 15.435,509.735 16.622,506.159 C16.784,505.69 32.938,459.217 95.931,443.473 C100.505,442.33 103.287,437.696 102.143,433.122 C100.999,428.557 96.365,425.758 91.8,426.919 L91.8,426.919 Z" id="Shape"></path>
                </g>
            </g>
        </g>
    </g>
</svg>